#Comment line ignore any data following # character 
#Hierarchical Translation and Rotation (.htr) file 
[Header]	
#Header keywords are followed by a single value 
FileType HTR		#Single word string
DataType HTRS		#Translation followed by rotation and scale data
FileVersion 1		#integer
NumSegments 64		#integer
NumFrames 3		#integer
DataFrameRate 30		#integer, data frame rate in this file
EulerRotationOrder ZYX
CalibrationUnits mm
RotationUnits Degrees
GlobalAxisofGravity Y
BoneLengthAxis Y
ScaleFactor 1.00
[SegmentNames&Hierarchy]
#CHILD	PARENT
Pinger_Root GLOBAL
Pelvis Pinger_Root
L_Hip Pelvis
R_Hip Pelvis
Rear_Leg01 Pelvis
Spine1 Pelvis
L_Leg01 L_Hip
L_Leg02 L_Leg01
L_Leg03 L_Leg02
L_Foot L_Leg03
L_Toe1_01 L_Foot
L_Toe2_01 L_Foot
L_Toe3_01 L_Foot
planeAlignerLeft L_Foot
L_Toe1_02 L_Toe1_01
L_Toe1_03 L_Toe1_02
L_Toe2_02 L_Toe2_01
L_Toe2_03 L_Toe2_02
L_Toe3_02 L_Toe3_01
L_Toe3_03 L_Toe3_02
planeLockWeightLeft planeAlignerLeft
R_Leg01 R_Hip
R_Leg02 R_Leg01
R_Leg03 R_Leg02
R_Foot R_Leg03
planeAlignerRight R_Foot
R_Toe1_01 R_Foot
R_Toe2_01 R_Foot
R_Toe3_01 R_Foot
planeLockWeightRight planeAlignerRight
R_Toe1_02 R_Toe1_01
R_Toe1_03 R_Toe1_02
R_Toe2_02 R_Toe2_01
R_Toe2_03 R_Toe2_02
R_Toe3_02 R_Toe3_01
R_Toe3_03 R_Toe3_02
Rear_Leg02 Rear_Leg01
Rear_Leg03 Rear_Leg02
Rear_Leg04 Rear_Leg03
Rear_Foot Rear_Leg04
planeAlignerCenter Rear_Foot
Rear_Toe1_01 Rear_Foot
Rear_Toe2_01 Rear_Foot
Rear_Toe3_01 Rear_Foot
planeLockWeightCenter planeAlignerCenter
Rear_Toe1_02 Rear_Toe1_01
Rear_Toe1_03 Rear_Toe1_02
Rear_Toe2_02 Rear_Toe2_01
Rear_Toe2_03 Rear_Toe2_02
Rear_Toe3_02 Rear_Toe3_01
Rear_Toe3_03 Rear_Toe3_02
Back_Bone Spine1
Head Spine1
Motor_Bone Back_Bone
Ping_Mechanism Back_Bone
BN_LookIK Head
bottomMouth Head
L_Mouth01 Head
L_mouthFront Head
mouthGun Head
R_Mouth01 Head
R_mouthFront Head
TopMouth Head
weapon_bone Head
[BasePosition]
#SegmentName Tx, Ty, Tz, Rx, Ry, Rz, BoneLength
Pinger_Root 0.000000 0.000000 0.000000 -90.000000 0.000000 0.000000 10.000000 
Pelvis 0.000000 0.000000 0.000000 0.000000 0.000000 0.000000 10.000000 
L_Hip 0.000000 0.000000 0.000000 0.000000 0.000000 0.000000 10.000000 
R_Hip 0.000000 0.000000 0.000000 0.000000 0.000000 0.000000 10.000000 
Rear_Leg01 0.000000 0.000000 0.000000 0.000000 0.000000 0.000000 10.000000 
Spine1 0.000000 0.000000 0.000000 0.000000 0.000000 0.000000 10.000000 
L_Leg01 0.000000 0.000000 0.000000 0.000000 0.000000 0.000000 10.000000 
L_Leg02 0.000000 0.000000 0.000000 0.000000 0.000000 0.000000 10.000000 
L_Leg03 0.000000 0.000000 0.000000 0.000000 0.000000 0.000000 10.000000 
L_Foot 0.000000 0.000000 0.000000 0.000000 0.000000 0.000000 10.000000 
L_Toe1_01 0.000000 0.000000 0.000000 0.000000 0.000000 0.000000 10.000000 
L_Toe2_01 0.000000 0.000000 0.000000 0.000000 0.000000 0.000000 10.000000 
L_Toe3_01 0.000000 0.000000 0.000000 0.000000 0.000000 0.000000 10.000000 
planeAlignerLeft 0.000000 0.000000 0.000000 0.000000 0.000000 0.000000 10.000000 
L_Toe1_02 0.000000 0.000000 0.000000 0.000000 0.000000 0.000000 10.000000 
L_Toe1_03 0.000000 0.000000 0.000000 0.000000 0.000000 0.000000 10.000000 
L_Toe2_02 0.000000 0.000000 0.000000 0.000000 0.000000 0.000000 10.000000 
L_Toe2_03 0.000000 0.000000 0.000000 0.000000 0.000000 0.000000 10.000000 
L_Toe3_02 0.000000 0.000000 0.000000 0.000000 0.000000 0.000000 10.000000 
L_Toe3_03 0.000000 0.000000 0.000000 0.000000 0.000000 0.000000 10.000000 
planeLockWeightLeft 0.000000 0.000000 0.000000 0.000000 0.000000 0.000000 10.000000 
R_Leg01 0.000000 0.000000 0.000000 0.000000 0.000000 0.000000 10.000000 
R_Leg02 0.000000 0.000000 0.000000 0.000000 0.000000 0.000000 10.000000 
R_Leg03 0.000000 0.000000 0.000000 0.000000 0.000000 0.000000 10.000000 
R_Foot 0.000000 0.000000 0.000000 0.000000 0.000000 0.000000 10.000000 
planeAlignerRight 0.000000 0.000000 0.000000 0.000000 0.000000 0.000000 10.000000 
R_Toe1_01 0.000000 0.000000 0.000000 0.000000 0.000000 0.000000 10.000000 
R_Toe2_01 0.000000 0.000000 0.000000 0.000000 0.000000 0.000000 10.000000 
R_Toe3_01 0.000000 0.000000 0.000000 0.000000 0.000000 0.000000 10.000000 
planeLockWeightRight 0.000000 0.000000 0.000000 0.000000 0.000000 0.000000 10.000000 
R_Toe1_02 0.000000 0.000000 0.000000 0.000000 0.000000 0.000000 10.000000 
R_Toe1_03 0.000000 0.000000 0.000000 0.000000 0.000000 0.000000 10.000000 
R_Toe2_02 0.000000 0.000000 0.000000 0.000000 0.000000 0.000000 10.000000 
R_Toe2_03 0.000000 0.000000 0.000000 0.000000 0.000000 0.000000 10.000000 
R_Toe3_02 0.000000 0.000000 0.000000 0.000000 0.000000 0.000000 10.000000 
R_Toe3_03 0.000000 0.000000 0.000000 0.000000 0.000000 0.000000 10.000000 
Rear_Leg02 0.000000 0.000000 0.000000 0.000000 0.000000 0.000000 10.000000 
Rear_Leg03 0.000000 0.000000 0.000000 0.000000 0.000000 0.000000 10.000000 
Rear_Leg04 0.000000 0.000000 0.000000 0.000000 0.000000 0.000000 10.000000 
Rear_Foot 0.000000 0.000000 0.000000 0.000000 0.000000 0.000000 10.000000 
planeAlignerCenter 0.000000 0.000000 0.000000 0.000000 0.000000 0.000000 10.000000 
Rear_Toe1_01 0.000000 0.000000 0.000000 0.000000 0.000000 0.000000 10.000000 
Rear_Toe2_01 0.000000 0.000000 0.000000 0.000000 0.000000 0.000000 10.000000 
Rear_Toe3_01 0.000000 0.000000 0.000000 0.000000 0.000000 0.000000 10.000000 
planeLockWeightCenter 0.000000 0.000000 0.000000 0.000000 0.000000 0.000000 10.000000 
Rear_Toe1_02 0.000000 0.000000 0.000000 0.000000 0.000000 0.000000 10.000000 
Rear_Toe1_03 0.000000 0.000000 0.000000 0.000000 0.000000 0.000000 10.000000 
Rear_Toe2_02 0.000000 0.000000 0.000000 0.000000 0.000000 0.000000 10.000000 
Rear_Toe2_03 0.000000 0.000000 0.000000 0.000000 0.000000 0.000000 10.000000 
Rear_Toe3_02 0.000000 0.000000 0.000000 0.000000 0.000000 0.000000 10.000000 
Rear_Toe3_03 0.000000 0.000000 0.000000 0.000000 0.000000 0.000000 10.000000 
Back_Bone 0.000000 0.000000 0.000000 0.000000 0.000000 0.000000 10.000000 
Head 0.000000 0.000000 0.000000 0.000000 0.000000 0.000000 10.000000 
Motor_Bone 0.000000 0.000000 0.000000 0.000000 0.000000 0.000000 10.000000 
Ping_Mechanism 0.000000 0.000000 0.000000 0.000000 0.000000 0.000000 10.000000 
BN_LookIK 0.000000 0.000000 0.000000 0.000000 0.000000 0.000000 10.000000 
bottomMouth 0.000000 0.000000 0.000000 0.000000 0.000000 0.000000 10.000000 
L_Mouth01 0.000000 0.000000 0.000000 0.000000 0.000000 0.000000 10.000000 
L_mouthFront 0.000000 0.000000 0.000000 0.000000 0.000000 0.000000 10.000000 
mouthGun 0.000000 0.000000 0.000000 0.000000 0.000000 0.000000 10.000000 
R_Mouth01 0.000000 0.000000 0.000000 0.000000 0.000000 0.000000 10.000000 
R_mouthFront 0.000000 0.000000 0.000000 0.000000 0.000000 0.000000 10.000000 
TopMouth 0.000000 0.000000 0.000000 0.000000 0.000000 0.000000 10.000000 
weapon_bone 0.000000 0.000000 0.000000 0.000000 0.000000 0.000000 10.000000 
#Beginning of Data. Separated by tabs
#Fr	Tx	Ty	Tz	Rx	Ry	Rz	SF
[Pinger_Root]
31 -2405.247559 -0.000664 0.000000 -0.000075 -0.000000 -0.000020 2405.247559
32 -2438.425293 -0.000673 0.000000 -0.000075 -0.000000 -0.000020 2438.425293
33 -2464.839111 -0.000680 0.000000 -0.000075 -0.000000 -0.000020 2464.839355
[Pelvis]
31 191.890045 189.977249 4538.637207 28.793039 -77.819611 25.430346 4546.662598
32 180.308426 238.219330 4419.822266 20.798035 -80.718262 33.227097 4429.908203
33 162.884399 287.463135 4323.152832 5.705029 -83.860710 47.811081 4335.760254
[L_Hip]
31 5.766392 125.831482 872.656799 -178.253311 -81.787712 87.381248 881.701050
32 5.766392 125.831482 872.656799 -178.253311 -81.787758 87.381340 881.701050
33 5.766392 125.831482 872.656799 -178.253311 -81.787758 87.381340 881.701050
[R_Hip]
31 5.765438 125.836372 -872.654907 -1.746713 81.787666 87.381149 881.699829
32 5.765438 125.836372 -872.654907 -1.746690 81.787712 87.381248 881.699829
33 5.765438 125.836372 -872.654907 -1.746690 81.787712 87.381248 881.699829
[Rear_Leg01]
31 -192.298416 -925.602966 -0.001907 -166.718460 14.403089 -142.941055 945.367432
32 -192.298416 -925.602966 -0.001907 -166.884338 12.238190 -145.703491 945.367432
33 -192.298416 -925.602966 -0.001907 -167.456451 9.798838 -148.826172 945.367432
[Spine1]
31 290.604584 5.007505 0.000477 -44.487579 9.260627 25.085852 290.647736
32 290.604584 5.007505 0.000477 -43.427345 10.932658 22.632036 290.647736
33 290.604584 5.007505 0.000477 -41.955189 13.073217 20.207880 290.647736
[L_Leg01]
31 761.932007 -0.002384 -0.069261 108.448639 -26.851868 -114.771889 761.932068
32 761.932007 -0.002384 -0.069261 120.003021 -36.886818 -123.517059 761.932068
33 761.932007 -0.002384 -0.069261 131.088760 -42.706791 -131.030273 761.932068
[L_Leg02]
31 1441.140503 -0.000954 -0.000715 0.175332 0.016918 -127.814850 1441.140503
32 1441.140503 -0.000954 -0.000715 1.610265 -0.475314 -137.761887 1441.140503
33 1441.140503 -0.000954 -0.000715 3.077207 -0.669993 -145.588425 1441.140503
[L_Leg03]
31 1686.963989 -0.000715 -0.000954 0.043643 -0.010385 98.820175 1686.963989
32 1686.963989 -0.000715 -0.000954 0.029418 -0.010141 102.063705 1686.963989
33 1686.963989 -0.000715 -0.000954 0.009221 -0.001489 108.339767 1686.963989
[L_Foot]
31 3041.570068 -30.715107 11.297464 -12.445391 14.399996 49.374115 3041.746094
32 3041.570068 -30.715107 11.297464 -10.590750 12.503605 41.340782 3041.746094
33 3041.570068 -30.715107 11.297464 -6.766699 11.012270 37.598148 3041.746094
[L_Toe1_01]
31 -188.216690 -224.732346 -21.137953 88.116829 2.650931 -117.280022 293.899567
32 -188.216690 -224.732346 -21.137953 88.314468 2.233218 -113.538834 293.899567
33 -188.216690 -224.732346 -21.137953 88.032257 1.097779 -127.028709 293.899567
[L_Toe2_01]
31 200.746536 -219.926590 148.838394 -75.699600 -7.453387 -58.313034 332.896027
32 200.746536 -219.926590 148.838394 -74.980164 -6.477306 -62.548317 332.896027
33 200.746536 -219.926590 148.838394 -74.184341 -5.034491 -68.377007 332.896027
[L_Toe3_01]
31 188.832520 -219.859131 -191.078659 -110.467278 15.044005 -61.733021 347.140900
32 188.832520 -219.859131 -191.078659 -110.796791 13.019187 -65.404076 347.140900
33 188.832520 -219.859131 -191.078659 -111.359558 10.148274 -70.653839 347.140900
[planeAlignerLeft]
31 -107.394363 -797.538208 -44.497910 0.000000 -89.909348 -90.081337 805.965759
32 -94.565147 -799.435730 -34.538418 0.000000 -89.909348 -90.084007 805.749939
33 -73.790176 -795.727173 -25.680092 0.000000 -89.907219 -90.086662 799.553772
[L_Toe1_02]
31 413.761139 0.000477 0.000000 0.001661 0.070897 0.001661 413.761139
32 413.761139 0.000477 0.000000 0.001407 -23.092236 0.001407 413.761139
33 413.761139 0.000477 0.000000 0.001396 -24.376040 0.001396 413.761139
[L_Toe1_03]
31 464.317322 0.000358 -0.000089 0.001673 -0.448396 -0.003292 464.317322
32 464.317322 0.000358 -0.000089 0.000796 32.621853 -0.003190 464.317322
33 464.317322 0.000358 -0.000089 0.007217 71.282051 0.007217 464.317322
[L_Toe2_02]
31 342.235809 -0.000477 0.000238 0.001182 -76.470100 0.001182 342.235809
32 342.235809 -0.000477 0.000238 0.001180 -77.652336 0.001180 342.235809
33 342.235809 -0.000477 0.000238 0.001180 -78.416183 0.001180 342.235809
[L_Toe2_03]
31 420.210846 -0.000715 0.000000 -179.993317 82.186485 -179.989822 420.210846
32 420.210846 -0.000715 0.000000 -179.996475 77.523384 -179.992966 420.210846
33 420.210846 -0.000715 0.000000 -179.997620 74.069862 -179.994095 420.210846
[L_Toe3_02]
31 329.270111 0.000954 0.000000 0.001179 -78.812485 0.001179 329.270111
32 329.270111 0.000954 0.000000 0.001178 -80.441490 0.001178 329.270111
33 329.270111 0.000954 0.000000 0.001177 -81.520966 0.001177 329.270111
[L_Toe3_03]
31 439.137451 -0.001907 0.000954 -179.989517 84.617523 -179.986008 439.137451
32 439.137451 -0.001907 0.000954 -179.995895 78.759239 -179.992371 439.137451
33 439.137451 -0.001907 0.000954 -179.997589 74.175255 -179.994064 439.137451
[planeLockWeightLeft]
31 104.002205 0.000076 -0.000267 -0.011826 -0.004376 0.005620 104.002213
32 0.001021 0.000076 -0.000267 -0.011826 -0.004376 0.005620 0.001058
33 0.000210 0.000067 -0.000281 -0.011826 -0.004376 0.005620 0.000357
[R_Leg01]
31 761.455627 -0.001907 -0.000358 112.478561 6.646629 48.809490 761.455688
32 761.455627 -0.001907 -0.000358 114.142593 5.324296 50.231598 761.455688
33 761.455627 -0.001907 -0.000358 115.990707 3.454731 52.172451 761.455688
[R_Leg02]
31 1441.140625 0.000000 -0.000238 -0.064521 -0.008088 -115.584099 1441.140625
32 1441.140625 0.000000 -0.000238 -0.125809 -0.001372 -118.021683 1441.140625
33 1441.140625 0.000000 -0.000238 -0.151405 0.012101 -119.389862 1441.140625
[R_Leg03]
31 1686.963989 0.000954 0.001431 0.007117 -0.003171 112.088600 1686.963989
32 1686.963989 0.000954 0.001431 0.011863 -0.006024 113.367577 1686.963989
33 1686.963989 0.000954 0.001431 0.011841 -0.006068 113.793190 1686.963989
[R_Foot]
31 3041.560059 -30.531288 -11.204481 43.170723 -47.210293 43.525497 3041.734131
32 3041.560059 -30.531288 -11.204481 43.668488 -46.677086 44.776966 3041.734131
33 3041.560059 -30.531288 -11.204481 43.728710 -46.007713 46.240540 3041.734131
[planeAlignerRight]
31 -140.274094 -575.706665 -190.590500 0.000000 -89.911530 -90.062187 622.446533
32 -129.357849 -581.046814 -214.706619 0.000000 -89.903091 -90.064079 632.809387
33 -118.441566 -586.387024 -238.822693 0.000000 -89.899132 -90.065979 644.138550
[R_Toe1_01]
31 -188.383347 -224.864899 21.052242 90.937958 4.689309 -156.935654 294.101532
32 -188.383347 -224.864899 21.052242 90.946648 5.836442 -157.047882 294.101532
33 -188.383347 -224.864899 21.052242 90.953094 6.983590 -157.160172 294.101532
[R_Toe2_01]
31 200.637817 -220.002121 -148.787384 -100.980591 11.348579 -41.318821 332.857574
32 200.637817 -220.002121 -148.787384 -101.411186 12.404342 -42.159592 332.857574
33 200.637817 -220.002121 -148.787384 -101.859383 13.453614 -43.011913 332.857574
[R_Toe3_01]
31 188.606735 -220.092957 191.126343 -65.601524 -38.724323 -55.070488 347.192566
32 188.606735 -220.092957 191.126343 -66.668854 -37.502430 -53.951675 347.192566
33 188.606735 -220.092957 191.126343 -67.410393 -36.017830 -53.299397 347.192566
[planeLockWeightRight]
31 999.999512 0.000583 -0.000178 -0.011823 -0.004379 -0.000027 999.999512
32 999.999512 0.000577 -0.000187 -0.011823 -0.004379 -0.000027 999.999512
33 999.999512 0.000572 -0.000195 -0.011823 -0.004379 -0.000027 999.999512
[R_Toe1_02]
31 413.762085 0.000477 -0.000119 0.001389 -25.390831 0.001389 413.762085
32 413.762085 0.000477 -0.000119 0.001387 -25.533667 0.001387 413.762085
33 413.762085 0.000477 -0.000119 0.001386 -25.676504 0.001386 413.762085
[R_Toe1_03]
31 464.317810 0.000000 0.001088 0.002962 43.311115 0.002962 464.317810
32 464.317810 0.000000 0.001088 0.003090 45.348419 0.003090 464.317810
33 464.317810 0.000000 0.001088 0.003231 47.386364 0.003231 464.317810
[R_Toe2_02]
31 342.234741 -0.000954 0.000238 -0.002337 -77.569870 -0.002337 342.234741
32 342.234741 -0.000954 0.000238 -0.002339 -76.768593 -0.002339 342.234741
33 342.234741 -0.000954 0.000238 -0.002341 -75.967262 -0.002341 342.234741
[R_Toe2_03]
31 420.210846 0.000715 -0.000268 -179.993088 77.206573 -179.996613 420.210846
32 420.210846 0.000715 -0.000268 -179.991562 80.141640 -179.995056 420.210846
33 420.210846 0.000715 -0.000268 -179.987946 83.605453 -179.991440 420.210846
[R_Toe3_02]
31 329.270355 -0.000477 -0.000954 0.001176 -82.807724 0.001176 329.270355
32 329.270355 -0.000477 -0.000954 0.001176 -83.015373 0.001176 329.270355
33 329.270355 -0.000477 -0.000954 0.001176 -83.222977 0.001176 329.270355
[R_Toe3_03]
31 439.137939 0.000238 0.001431 -179.998932 66.800392 -179.995361 439.137939
32 439.137939 0.000238 0.001431 -179.999100 65.352783 -179.995529 439.137939
33 439.137939 0.000238 0.001431 -179.999176 64.596390 -179.995590 439.137939
[Rear_Leg02]
31 1162.777710 -0.029802 0.005960 -43.162758 11.616006 -132.735535 1162.777710
32 1162.777710 -0.029802 0.005960 -44.394478 8.313419 -137.113464 1162.777710
33 1162.777710 -0.029802 0.005960 -45.228703 5.887252 -140.861420 1162.777710
[Rear_Leg03]
31 607.192505 -0.013351 -0.073195 0.009898 -0.006179 80.302490 607.192505
32 607.192505 -0.013351 -0.073195 0.009876 -0.006214 80.708580 607.192505
33 607.192505 -0.013351 -0.073195 0.009854 -0.006249 81.114655 607.192505
[Rear_Leg04]
31 995.874512 -0.020504 -0.011921 -0.042002 -0.015676 104.885628 995.874573
32 995.874512 -0.020504 -0.011921 -0.042475 -0.014347 108.492218 995.874573
33 995.874512 -0.020504 -0.011921 -0.042787 -0.013386 111.073753 995.874573
[Rear_Foot]
31 3096.176270 -0.067472 -0.041425 86.802994 45.858055 -124.031769 3096.176270
32 3096.176270 -0.067472 -0.041425 86.361229 45.123852 -123.172569 3096.176270
33 3096.176270 -0.067472 -0.041425 85.524002 44.471996 -122.429146 3096.176270
[planeAlignerCenter]
31 9.057413 41.442520 -796.381836 0.001823 -0.001485 168.341293 797.510803
32 8.412900 46.286106 -787.062744 0.001804 -0.001507 169.762695 788.467529
33 7.768389 51.129684 -777.743713 0.001784 -0.001529 171.183441 779.461243
[Rear_Toe1_01]
31 0.653352 83.966492 -371.173737 -0.300553 27.041042 77.433632 380.553192
32 0.653352 83.966492 -371.173737 -0.247434 26.548252 79.005684 380.553192
33 0.653352 83.966492 -371.173737 -0.209620 26.054548 80.569939 380.553192
[Rear_Toe2_01]
31 178.200760 -294.826019 -362.060547 -2.531530 52.239365 -88.028900 499.765686
32 178.200760 -294.826019 -362.060547 -2.127350 51.958435 -85.826576 499.765686
33 178.200760 -294.826019 -362.060547 -1.632806 51.433033 -83.629044 499.765686
[Rear_Toe3_01]
31 -153.359680 -308.780914 -362.060852 -4.241240 52.517399 -129.436356 499.952881
32 -153.359680 -308.780914 -362.060852 -3.880543 52.144566 -127.353157 499.952881
33 -153.359680 -308.780914 -362.060852 -3.475502 51.574528 -125.374489 499.952881
[planeLockWeightCenter]
31 1000.000244 0.000669 -0.000161 -0.011814 -0.004373 -0.000015 1000.000244
32 1000.000244 0.000675 -0.000164 -0.011814 -0.004373 -0.000015 1000.000244
33 1000.000244 0.000681 -0.000166 -0.011814 -0.004373 -0.000015 1000.000244
[Rear_Toe1_02]
31 379.707825 0.194073 0.000477 -0.001614 -33.557049 0.002220 379.707855
32 379.707825 0.194073 0.000477 -0.001824 -33.555893 0.002284 379.707855
33 379.707825 0.194073 0.000477 -0.002035 -33.554749 0.002347 379.707855
[Rear_Toe1_03]
31 500.129700 0.165701 0.000119 0.007211 71.266670 0.007211 500.129761
32 500.129700 0.165701 0.000119 0.007247 71.361267 0.007247 500.129761
33 500.129700 0.165701 0.000119 0.007284 71.455818 0.007284 500.129761
[Rear_Toe2_02]
31 340.494507 0.000238 -0.000954 0.001182 -77.251350 0.001182 340.494507
32 340.494507 0.000238 -0.000954 0.001181 -78.381393 0.001181 340.494507
33 340.494507 0.000238 -0.000954 0.001179 -79.511253 0.001179 340.494507
[Rear_Toe2_03]
31 433.103577 0.000000 0.000238 0.017874 82.459389 0.017874 433.103546
32 433.103577 0.000000 0.000238 0.025284 84.670082 0.025284 433.103546
33 433.103577 0.000000 0.000238 0.043187 86.880775 0.043187 433.103546
[Rear_Toe3_02]
31 340.494141 -0.000358 -0.000477 0.001180 -78.898674 0.001180 340.494171
32 340.494141 -0.000358 -0.000477 0.001179 -79.739922 0.001179 340.494171
33 340.494141 -0.000358 -0.000477 0.001178 -80.581223 0.001178 340.494171
[Rear_Toe3_03]
31 433.103577 0.001431 -0.000238 -0.016378 85.496674 -0.012879 433.103546
32 433.103577 0.001431 -0.000238 -0.025736 87.252625 -0.022237 433.103546
33 433.103577 0.001431 -0.000238 -0.068318 89.009689 -0.064819 433.103546
[Back_Bone]
31 1312.175781 -701.934692 0.000954 -0.872993 0.583960 -86.355927 1488.125488
32 1312.175781 -701.934692 0.000954 -1.455277 1.389246 -87.399742 1488.125488
33 1312.175781 -701.934692 0.000954 -1.927246 1.940701 -87.805420 1488.125488
[Head]
31 1406.159424 809.709290 0.001431 -9.233812 2.889377 1.193637 1622.625488
32 1406.159424 809.709290 0.001431 -9.198898 2.894846 0.765734 1622.625488
33 1406.159424 809.709290 0.001431 -9.164028 2.900574 0.337838 1622.625488
[Motor_Bone]
31 1158.364380 -417.834747 0.000477 -1.440882 0.000167 -105.983208 1231.419434
32 1158.364380 -417.834747 0.000477 -1.029635 1.419330 -104.575363 1231.419434
33 1158.364380 -417.834747 0.000477 -0.583231 2.827924 -103.156067 1231.419434
[Ping_Mechanism]
31 1230.255737 -436.764954 56.310734 0.000103 -0.000053 82.120995 1306.699463
32 1230.607666 -440.305145 41.657120 0.000103 -0.000053 82.120995 1307.669312
33 1231.514282 -440.391022 23.515116 0.000103 -0.000053 82.120995 1308.099731
[BN_LookIK]
31 193.241119 1380.371704 -0.002861 0.000000 89.965736 -31.038179 1393.832153
32 193.241119 1380.371704 -0.002861 0.000000 89.965736 -31.038179 1393.832153
33 193.241119 1380.371704 -0.002861 0.000000 89.965736 -31.038179 1393.832153
[bottomMouth]
31 -435.092926 615.759399 -0.000954 -0.000022 0.000016 73.527184 753.966492
32 -435.092926 615.759399 -0.000954 -0.000022 0.000016 73.527184 753.966492
33 -435.092926 615.759399 -0.000954 -0.000022 0.000016 73.527184 753.966492
[L_Mouth01]
31 554.440979 7.658243 838.222046 150.204178 23.759130 109.605339 1005.027161
32 554.440979 7.658243 838.222046 150.204178 23.759130 109.605339 1005.027161
33 554.440979 7.658243 838.222046 150.204178 23.759130 109.605339 1005.027161
[L_mouthFront]
31 551.629089 934.514771 339.150421 0.000081 2.804060 79.119301 1136.941284
32 551.629089 934.514771 339.150421 0.000081 2.804060 79.119301 1136.941284
33 551.629089 934.514771 339.150421 0.000081 2.804060 79.119301 1136.941284
[mouthGun]
31 55.332661 1627.420898 0.000000 0.000023 0.000009 -11.038128 1628.361328
32 55.332661 1627.420898 0.000000 0.000023 0.000009 -11.038128 1628.361328
33 55.332661 1627.420898 0.000000 0.000023 0.000009 -11.038128 1628.361328
[R_Mouth01]
31 554.442383 7.659197 -838.223938 29.795891 -23.759109 109.605331 1005.029541
32 554.442383 7.659197 -838.223938 29.795891 -23.759109 109.605331 1005.029541
33 554.442383 7.659197 -838.223938 29.795891 -23.759109 109.605331 1005.029541
[R_mouthFront]
31 551.629089 934.514282 -339.151367 0.000029 -2.803930 79.119133 1136.941162
32 551.629089 934.514282 -339.151367 0.000029 -2.803930 79.119133 1136.941162
33 551.629089 934.514282 -339.151367 0.000029 -2.803930 79.119133 1136.941162
[TopMouth]
31 461.269867 -56.106091 -0.008583 -0.000059 -0.000268 92.025169 464.669525
32 461.269867 -56.106091 -0.008583 -0.000059 -0.000268 92.025169 464.669525
33 461.269867 -56.106091 -0.008583 -0.000059 -0.000268 92.025169 464.669525
[weapon_bone]
31 -987.239868 1448.372803 0.001431 0.000000 89.965736 -31.038221 1752.833740
32 -987.239868 1448.372803 0.001431 0.000000 89.965736 -31.038221 1752.833740
33 -987.239868 1448.372803 0.001431 0.000000 89.965736 -31.038221 1752.833740
